<svg width="440" height="412" viewBox="0 0 440 412" fill="none" xmlns="http://www.w3.org/2000/svg">
<path d="M27.0599 189.074C29.4197 189.074 31.3327 187.161 31.3327 184.801C31.3327 182.441 29.4197 180.528 27.0599 180.528C24.7001 180.528 22.7871 182.441 22.7871 184.801C22.7871 187.161 24.7001 189.074 27.0599 189.074Z" stroke="black" stroke-width="2"/>
<path d="M35.4341 185.236C44.0525 184.349 57.5756 185.398 59.174 192.064C60.7723 198.731 54.6688 201.169 51.4174 201.555C39.0383 203.522 22.624 202.596 22.624 192.064" stroke="black" stroke-width="2" stroke-linecap="round"/>
<path d="M32.32 195.318C32.8646 195.318 33.3061 194.876 33.3061 194.332C33.3061 193.787 32.8646 193.346 32.32 193.346C31.7754 193.346 31.334 193.787 31.334 194.332C31.334 194.876 31.7754 195.318 32.32 195.318Z" stroke="black" stroke-width="2"/>
<path d="M41.8506 194.332C41.8506 194.811 41.4043 195.318 40.7002 195.318C39.9961 195.318 39.5498 194.811 39.5498 194.332C39.5498 193.853 39.9961 193.346 40.7002 193.346C41.4043 193.346 41.8506 193.853 41.8506 194.332Z" stroke="black" stroke-width="2"/>
<path d="M49.0817 195.318C49.6263 195.318 50.0678 194.876 50.0678 194.332C50.0678 193.787 49.6263 193.346 49.0817 193.346C48.5372 193.346 48.0957 193.787 48.0957 194.332C48.0957 194.876 48.5372 195.318 49.0817 195.318Z" stroke="black" stroke-width="2"/>
<path d="M351.302 68.776C353.48 68.776 355.246 67.0101 355.246 64.8318C355.246 62.6535 353.48 60.8877 351.302 60.8877C349.123 60.8877 347.357 62.6535 347.357 64.8318C347.357 67.0101 349.123 68.776 351.302 68.776Z" stroke="black" stroke-width="2"/>
<path d="M359.05 61.3848C361.94 61.3848 370.199 61.3848 374.083 61.3848C377.23 61.3848 378.745 62.0809 378.745 66.9532C378.745 71.6872 378.706 77.8193 378.745 80.2943C378.772 82.0343 377.906 83.96 375.016 84.2384C372.125 84.5168 360.526 84.3544 355.087 84.2384C353.067 84.2384 349.493 83.0933 349.493 78.4379V73.2175" stroke="black" stroke-width="2" stroke-linecap="round"/>
<path d="M357.053 69.5977L364.284 74.5278" stroke="black" stroke-width="2" stroke-linecap="round"/>
<path d="M364.285 74.5293L377.432 62.3682" stroke="black" stroke-width="2" stroke-linecap="round"/>
<path d="M367.616 71.5703L371.209 75.1858L374.801 78.8012" stroke="black" stroke-width="2" stroke-linecap="round"/>
<path d="M354.424 78.8012L359.724 71.5703" stroke="black" stroke-width="2" stroke-linecap="round"/>
<path d="M380.206 315.281C379.114 316.375 378.172 317.318 377.523 317.967C375.832 319.661 374.056 318.673 373.38 317.967L362.59 307.572C360.998 306.091 359.651 304.629 353.631 298.886C353.015 298.269 352.038 296.693 353.062 295.326C354.086 293.959 359.841 286.782 362.59 283.364C363.425 282.156 365.237 280.718 367.549 282.868C369.54 284.719 376.366 291.127 382.197 295.999" stroke="black" stroke-width="2" stroke-linecap="round"/>
<path d="M362.477 283.732C362.816 289.967 365.104 300.004 376.938 303.782" stroke="black" stroke-width="2" stroke-linecap="round"/>
<path d="M392.487 304.266C391.945 302.887 387.781 301.282 386.206 304.266C384.585 307.344 385.825 309.937 386.88 310.446C388.228 311.095 390.206 311.434 392.297 307.698" stroke="black" stroke-width="2" stroke-linecap="round"/>
<path d="M392.832 302.347C392.71 303.067 392.585 303.37 392.487 304.266C392.359 305.433 392.276 306.657 392.296 307.698C392.336 309.524 392.697 310.784 393.723 310.176C395.78 308.956 396.891 307.955 397.187 306.935C397.68 305.219 397.683 301.934 394.909 299.786C391.563 297.192 387.79 297.263 384.822 299.786C381.875 302.29 381.069 306.298 381.23 308.378C381.407 310.653 383.105 315.538 388.644 315.615C394.183 315.691 397.184 312.705 397.644 311.307" stroke="black" stroke-width="2" stroke-linecap="round"/>
<path d="M100.849 263.213C99.6674 258.651 95.7437 250.238 89.5041 253.082C83.2641 255.925 86.9039 261.02 89.5041 263.213C91.2536 264.397 95.015 265.665 96.0628 261.257C97.1107 256.85 92.6949 255.037 91.4538 256.992C90.7994 257.762 90.0602 259.693 92.3402 261.257" stroke="black" stroke-width="2" stroke-linecap="round"/>
<path d="M128.695 41.9775C128.415 40.3962 130.009 39.1681 131.447 39.7868L131.585 39.8526L134.529 41.3779C135.697 41.9839 137.09 41.9762 138.251 41.3569L141.177 39.797C142.64 39.0177 144.361 40.2536 144.091 41.8885L143.549 45.1601C143.334 46.4588 143.772 47.7809 144.72 48.6944L147.107 50.9948C148.3 52.145 147.657 54.1642 146.019 54.4122L142.74 54.9076C141.52 55.092 140.458 55.8286 139.855 56.8956L139.741 57.1129L138.291 60.0944C137.566 61.585 135.446 61.5972 134.704 60.1152L133.22 57.1506C132.63 55.9734 131.499 55.1612 130.195 54.9793L126.911 54.5211C125.27 54.2919 124.603 52.2801 125.784 51.1164L128.145 48.7886C129.082 47.8643 129.505 46.5375 129.275 45.2413L128.695 41.9775Z" stroke="black" stroke-width="2"/>
<path d="M230.184 189.045V216.983" stroke="black" stroke-width="2" stroke-linecap="round"/>
<path d="M251.22 192.332V218.955" stroke="black" stroke-width="2" stroke-linecap="round"/>
<path d="M202.019 313.316C195.073 314.181 178.812 317.371 175.251 323.857C174.182 325.803 172.942 330.539 176.533 333.911C180.123 337.285 186.685 336.398 189.516 335.533L206.026 328.884" stroke="black" stroke-width="2" stroke-linecap="round"/>
<path d="M296.675 264.366C283.714 264.783 226.471 292.496 199.47 306.3C197.17 321.511 206.873 332.433 212.012 335.993C238.927 328.179 294.166 312.343 299.81 311.509C305.455 310.676 311.046 306.648 313.136 304.738C327.77 287.651 316.969 273.135 309.74 268.012C304.593 264.366 300.15 264.254 296.675 264.366Z" fill="black"/>
<path d="M175.272 260.489C184.455 261.102 224.514 276.627 243.495 284.764L200.087 306.455C180.66 312.153 168.726 310.276 165.081 309.048C144.043 298.912 152.286 273.907 160.645 264.644C166.032 260.059 171.982 260.27 175.272 260.489Z" fill="black"/>
<path d="M277.476 316.271C283.215 319.03 286.319 322.643 287.892 325.607C291.264 333.324 285.209 337.962 278.297 335.781C274.477 334.576 273.577 333.768 271.553 332.091C270.527 331.239 265.732 326.784 260.258 321.522" stroke="black" stroke-width="2" stroke-linecap="round"/>
<path d="M167.65 191.564L171.323 258.313C171.615 263.614 175.998 267.763 181.308 267.763H291.178C296.701 267.763 301.178 263.286 301.178 257.763V189.484C301.178 183.909 296.618 179.41 291.043 179.485L177.5 181.016C171.815 181.092 167.337 185.887 167.65 191.564Z" fill="black"/>
<rect x="171.021" y="268.914" width="130.157" height="6.24488" rx="3.12244" fill="black"/>
<path d="M251.548 144.673C262.997 144.509 288.195 153.219 298.22 180.663" stroke="black" stroke-width="2" stroke-linecap="round"/>
<path d="M226.404 144.511C200.274 149.605 187.784 160.78 177.924 182.309" stroke="black" stroke-width="2" stroke-linecap="round"/>
<path d="M313.832 170.504L320.241 159.822" stroke="black" stroke-width="2" stroke-linecap="round"/>
<path d="M320.241 173.461L328.951 166.23" stroke="black" stroke-width="2" stroke-linecap="round"/>
<path d="M321.557 178.392C323.255 179.049 327.111 179.674 328.952 176.913" stroke="black" stroke-width="2" stroke-linecap="round"/>
<path d="M153.437 168.505L143.577 158.316" stroke="black" stroke-width="2" stroke-linecap="round"/>
<path d="M163.461 166.859L157.545 151.575" stroke="black" stroke-width="2" stroke-linecap="round"/>
<path d="M150.972 174.257L143.577 171.463" stroke="black" stroke-width="2" stroke-linecap="round"/>
<path d="M304.794 199.101C310.874 208.632 317.777 219.972 304.794 241.308" stroke="black" stroke-width="2" stroke-linecap="round"/>
<path d="M251.712 145.496C253.191 141.223 251.843 138.348 250.529 137.8C242.64 145.031 230.676 142.347 226.239 137.964C224.662 139.41 225.582 143.688 226.239 145.003C234.785 154.469 246.946 149.166 251.712 145.496Z" fill="black"/>
<path d="M216.708 171.79L217.371 170.773C221.092 165.062 228.333 162.782 234.655 165.331V165.331C240.331 167.62 246.834 166.032 250.817 161.385L255.985 155.356" stroke="black" stroke-width="2" stroke-linecap="round"/>
<path d="M165.269 205.148C162.804 210.955 159.879 225.033 167.899 234.894" stroke="black" stroke-width="2" stroke-linecap="round"/>
<path d="M274.372 78.3156C270.757 91.2984 268.949 92.4488 263.69 98.2006C263.69 92.5162 262.714 82.9748 262.714 79.0018C245.494 79.0018 230.962 71.9725 225.849 68.4579C226.032 80.377 214.858 88.1703 214.858 88.1703C214.858 88.1703 216.461 92.9837 217.377 103.757C218.109 112.375 216.003 110.71 214.858 108.799C211.561 98.164 206.157 101.006 203.867 103.757C175.769 58.1019 218.979 49.2804 227.222 50.1209C233.45 44.8031 242.136 40.6358 248.242 40.0246C270.264 37.8202 280.235 57.2645 274.372 78.3156Z" fill="black"/>
<path d="M215.243 116.926C218.201 134.985 238.056 147.971 252.384 133.342C266.712 118.712 263.844 91.9342 262.314 79.4385" stroke="black" stroke-width="2" stroke-linecap="round"/>
<path d="M203.542 102.638C201.734 107.075 203.43 116.907 215.243 116.907" stroke="black" stroke-width="2" stroke-linecap="round"/>
<path d="M208.753 105.076C208.491 106.026 208.7 108.275 211.628 109.678" stroke="black" stroke-width="2" stroke-linecap="round"/>
<path d="M261.915 114.609C265.771 113.001 268.489 107.049 267.443 97.5176" stroke="black" stroke-width="2" stroke-linecap="round"/>
<path d="M240.223 125.455C244.002 126.441 243.763 123.728 246.632 121.347" stroke="black" stroke-width="2" stroke-linecap="round"/>
<ellipse cx="251.506" cy="102.493" rx="2.46509" ry="2.46509" fill="black"/>
<ellipse cx="229.813" cy="102.823" rx="2.46509" ry="2.46509" fill="black"/>
<path d="M224.445 97.1877C224.964 95.6604 227.202 92.8348 232.005 93.7512" stroke="black" stroke-width="2" stroke-linecap="round"/>
<path d="M247.453 94.2278C248.599 93.2357 251.714 91.8467 255.013 94.2278" stroke="black" stroke-width="2" stroke-linecap="round"/>
<path d="M239.502 101.132C239.119 104.377 238.859 110.959 240.88 111.321" stroke="black" stroke-width="2" stroke-linecap="round"/>
<path d="M334.21 250.208C378.089 262.369 456.906 276.338 421.145 234.924C409.861 223.804 393.208 210.766 366.42 199.263" stroke="black" stroke-width="2" stroke-linecap="round"/>
<path d="M381.704 165.242C408.984 147.767 452.928 111.667 410.463 107.066C367.998 102.464 329.225 118.405 315.146 126.951" stroke="black" stroke-width="2" stroke-linecap="round"/>
<path d="M276.034 139.704C294.111 100.756 323.363 20.0323 295.754 8.72581C261.243 -5.40735 216.543 35.3487 180.06 132.637" stroke="black" stroke-width="2" stroke-linecap="round"/>
<path d="M139.856 106.154C99.4286 84.0233 16.8975 49.9832 10.1924 90.8707C3.48739 131.758 85.405 165.864 127.202 177.806" stroke="black" stroke-width="2" stroke-linecap="round"/>
<path d="M137.934 199.263C78.9365 229.337 5.01329 270.929 45.96 292.607C62.7224 301.482 105.615 296.058 125.336 288.006" stroke="black" stroke-width="2" stroke-linecap="round"/>
<ellipse cx="234.457" cy="396.14" rx="81.3478" ry="9.86034" fill="black"/>
</svg>
