<svg width="720" height="720" viewBox="0 0 720 720" fill="none" xmlns="http://www.w3.org/2000/svg">
<g clip-path="url(#clip0_2324_48)">
<rect x="-110.747" y="-120.988" width="951.735" height="951.735" rx="1.5" stroke="#E4E4E7"/>
<path fill-rule="evenodd" clip-rule="evenodd" d="M85.82 468.766C86.3543 437.287 86.7148 406.13 86.3543 374.722L85.614 340.424C85.1827 300.1 84.584 259.77 83.1356 219.484C82.4854 201.614 81.3717 183.66 79.8976 166.002C77.799 143.349 75.8999 120.503 74.1039 98.21C73.6855 91.2448 75.43 91.5795 79.08 97.032C83.1485 102.452 87.8478 113.344 89.618 126.509C93.1715 149.838 94.1629 173.244 95.3409 196.625C96.3838 220.025 96.9374 243.464 96.9889 267.012C97.0854 295.169 98.6562 324.42 99.1647 353.202C99.6926 384.835 100.014 416.54 99.6282 448.218C99.4608 467.678 99.2613 487.132 99.4222 506.541C99.7183 535.947 100.22 565.495 102.634 594.547C104.469 617.129 107.823 639.1 111.628 661.109C112.522 665.944 113.398 670.682 114.299 675.561C117.434 693.657 117.737 699.528 114.396 704.182C113.649 705.238 112.96 706.583 112.143 707.272C109.394 709.609 105.48 702.65 102.261 689.337C92.9269 649.825 88.4464 607.029 86.6375 564.233C85.202 532.426 85.4209 500.535 85.4788 468.805L85.82 468.766Z" fill="#221F1F"/>
<path fill-rule="evenodd" clip-rule="evenodd" d="M265.172 623.193C296.658 624.796 328.227 625.459 359.789 625.105C371.319 625.111 382.803 624.236 394.313 624.049C434.882 622.974 475.463 620.566 515.8 615.893C533.689 613.801 551.592 610.988 569.153 607.756C580.405 605.503 591.69 603.314 602.865 600.668C614.144 598.499 625.396 596.265 636.746 594.308C643.84 593.15 643.421 595.152 638.13 598.911C632.806 602.503 622.764 608.934 609.811 612.494C586.759 618.442 563.34 622.42 539.869 626.141C516.321 629.25 492.664 631.845 468.826 633.106C440.347 634.819 410.799 637.465 381.644 638.347C349.612 639.37 317.541 639.389 285.508 638.572C265.79 637.954 246.079 637.117 226.406 635.9C196.685 633.763 166.822 631.613 137.319 629.489C114.37 627.899 91.7874 626.972 69.0441 625.163C64.0358 624.738 59.1176 624.519 54.0771 623.959C35.4022 621.944 29.6279 619.942 26.2676 615.088C25.5015 613.981 24.4522 612.835 24.0724 611.779C22.7978 608.168 30.7029 606.591 44.3051 607.441C84.6676 609.99 127.006 613.376 169.802 616.53C201.661 618.886 233.378 621.622 265.147 622.82L265.172 623.193Z" fill="#221F1F"/>
<path fill-rule="evenodd" clip-rule="evenodd" d="M170.773 434.655C170.554 452.172 170.579 469.72 170.869 487.255L171.577 506.426C172.131 528.931 172.478 551.61 174.732 573.748C175.008 576.092 175.33 578.428 175.755 580.636C175.916 581.428 176 581.847 176.193 582.452C176.354 582.992 176.631 583.623 177.281 583.655C177.886 583.874 178.523 583.887 179.16 583.952C179.972 583.964 181.381 584.074 182.553 584.016C184.986 584.022 187.503 583.9 190.001 583.72C196.213 583.256 202.483 582.355 208.74 581.486C214.965 580.469 221.377 580.179 227.563 579.49C231.239 579.098 231.567 581.081 228.728 584.151C225.877 587.048 220.154 591.277 212.77 592.867C206.552 594 200.307 594.966 193.915 595.642C190.703 595.957 187.478 596.228 184.091 596.311C182.392 596.35 180.693 596.292 178.819 596.131C177.654 596.144 175.993 595.796 174.616 595.423C173.18 595.075 171.725 594.773 170.354 594.232C164.612 591.599 164.078 581.692 163.653 579.651C163.176 576.008 162.88 572.48 162.636 568.952C162.172 561.91 161.96 554.932 161.895 547.941C161.747 532.066 160.466 515.683 160.106 499.532C159.713 481.771 159.629 464.01 159.713 446.249L160.151 413.457C160.318 405.166 160.595 396.868 161.058 388.557C161.29 384.399 161.554 380.24 161.96 376.049C162.191 373.906 162.314 372.135 162.938 368.93C163.485 366.155 164.38 363.117 167.232 362.653C169.221 362.228 171.68 362.37 173.772 362.537L178.742 362.968L188.141 363.767C194.353 364.224 200.533 364.34 206.564 364.108C209.223 363.986 211.792 363.78 214.347 363.496C223.836 362.434 225.684 361.707 228.947 362.679C229.649 362.853 230.531 362.865 231.168 363.078C232.237 363.406 232.346 364.674 230.962 366.696C229.585 368.698 226.527 370.938 222.413 372.354C210.137 376.384 197.951 375.148 186.081 374.305L177.255 373.545L173.309 373.223C172.91 373.204 173.122 373.236 173.045 373.249C173.013 373.378 173.09 373.12 173.038 373.545C172.704 376.21 172.491 379.094 172.305 381.965C171.307 399.192 171.082 416.991 171.049 434.63L170.773 434.655Z" fill="#221F1F"/>
<path fill-rule="evenodd" clip-rule="evenodd" d="M231.208 466.772L230.513 490.578C230.449 493.468 230.713 496.358 230.635 499.249C230.346 509.458 229.972 519.675 229.857 529.884C229.773 534.41 229.992 538.955 230.281 543.435L230.938 552.055C230.989 554.861 230.751 558.009 230.339 560.475C230.262 560.771 230.082 561.029 229.837 561.247C229.708 561.363 229.573 561.46 229.419 561.55L229.296 561.608L228.498 561.885C228.099 562.026 227.964 562.071 228.093 562.026C228.904 561.756 228.563 561.84 228.331 561.859C228.125 561.872 227.9 561.859 227.668 561.82C227.198 561.737 226.683 561.537 226.129 561.17C223.979 559.599 221.398 556.979 220.696 553.625C219.576 541.774 219.235 529.987 220.284 518.033C220.876 510.894 220.168 503.504 220.149 496.217L220.348 472.173L220.535 457.38C220.58 449.913 220.812 442.407 220.612 434.991C220.471 429.223 219.634 423.577 219.228 417.816C219.132 416.547 218.932 415.305 218.894 414.03C218.823 409.254 219.685 407.741 222.795 406.904C223.509 406.711 224.224 406.447 224.925 406.357C227.327 406.061 229.219 408.057 229.76 411.417C231.466 421.44 231.698 432.081 231.71 442.793C231.633 450.756 231.556 458.764 231.479 466.759L231.208 466.772Z" fill="#221F1F"/>
<path fill-rule="evenodd" clip-rule="evenodd" d="M313.558 386.882C313.59 407.572 313.77 428.275 314.163 448.971L314.955 471.605C315.528 498.198 316.017 524.836 317.562 551.326C317.922 557.19 318.405 563.074 319.113 568.842L319.706 573.129L320.047 575.221L320.278 576.367C320.51 576.972 320.484 577.874 321.18 578.112C321.836 578.344 322.538 578.363 323.201 578.414C323.452 578.382 324.302 578.479 325.242 578.447L327.907 578.408L333.353 578.06C337.016 577.771 340.704 577.339 344.393 576.908C351.744 575.884 359.276 575.498 366.589 574.648C370.915 574.133 371.179 576.136 367.709 579.322C364.227 582.322 357.377 586.68 348.609 588.309C340.782 589.506 333.082 590.581 324.495 590.658L322.544 590.594C321.553 590.555 320.575 590.497 319.648 590.369C317.877 589.924 315.965 589.648 314.395 588.894C313.744 588.347 312.669 588.283 312.38 587.343C311.762 586.712 311.054 586.229 310.564 585.521C309.612 584.086 309.032 582.29 308.588 580.474L308.035 577.674L307.803 576.045L307.423 572.994L306.844 567.046C305.595 551.358 305.254 535.895 305.208 520.297C305.183 501.668 303.882 482.362 303.458 463.346C302.988 442.45 302.775 421.541 302.653 400.633L302.582 362.034C302.646 342.535 302.846 322.991 303.567 303.518C303.85 299.572 303.638 296.553 304.732 290.637C305.035 289.369 305.389 288.158 306.078 287.193C307.043 286.42 308.009 285.841 309.264 285.693C311.562 285.3 315 285.764 316.963 285.931C324.431 286.684 331.679 287.347 338.883 287.547C342.043 287.618 345.101 287.585 348.178 287.47C359.662 286.974 361.703 285.88 365.263 286.665C366.055 286.8 366.982 286.658 367.683 286.8C368.816 286.955 368.977 288.429 367.246 290.727C365.527 293.031 361.735 295.433 356.843 296.714C342.423 300.293 327.881 297.692 314.839 296.456C314.646 290.965 313.841 311.771 313.79 324.343C313.584 345.059 313.59 365.98 313.835 386.85L313.558 386.882Z" fill="#221F1F"/>
<path fill-rule="evenodd" clip-rule="evenodd" d="M370.283 423.985L369.806 457.717C369.78 461.824 370.07 465.919 370.012 470.019C369.832 484.471 369.645 498.955 369.465 513.407C369.42 519.819 369.658 526.269 369.98 532.616L370.688 544.867C370.752 548.864 370.534 553.255 370.122 556.905C370.051 557.368 369.864 557.748 369.613 558.051C369.349 558.353 369.336 558.476 367.765 558.971L368.557 558.701L368.409 558.72L368.113 558.727C367.901 558.72 367.682 558.669 367.45 558.585C366.98 558.411 366.459 558.083 365.905 557.536C363.755 555.276 361.161 551.504 360.446 546.753C359.275 530.029 358.85 513.336 359.809 496.445C360.35 486.351 359.571 475.884 359.5 465.571L359.481 431.562L359.513 410.628C359.468 400.064 359.622 389.442 359.326 378.956C359.081 370.8 358.232 362.811 357.704 354.712C357.601 352.923 357.395 351.172 357.35 349.369C357.15 342.713 358.142 340.421 361.225 339.192C361.933 338.902 362.648 338.51 363.356 338.361C365.763 337.885 367.637 340.66 368.165 345.359C369.961 359.598 370.392 374.765 370.527 389.964C370.534 401.268 370.546 412.63 370.553 423.966L370.283 423.985Z" fill="#221F1F"/>
<path fill-rule="evenodd" clip-rule="evenodd" d="M458.069 329.861C458.198 354.897 458.533 379.938 459.099 404.98L460.091 432.364C460.882 464.558 461.687 496.764 463.316 528.893C464.05 543.113 465.273 557.539 467.043 571.277C467.281 572.944 467.346 573.144 467.513 573.852C467.648 574.444 467.822 575.178 468.575 575.184C469.013 575.262 469.438 575.287 469.856 575.32L471.556 575.339C473.345 575.339 475.173 575.287 477.034 575.172C480.748 574.94 484.508 574.618 488.286 574.219C495.825 573.491 503.485 572.899 510.978 572.024C516.225 571.309 516.379 573.35 512.066 576.704C507.734 579.813 499.339 584.416 488.647 586.057C484.875 586.566 481.07 586.978 477.143 587.242C475.199 587.383 473.158 587.441 471.092 587.467C470.429 587.435 467.758 587.409 466.167 587.152C464.436 586.752 462.736 586.334 461.056 585.793C460.438 585.265 459.556 585.027 459.157 584.261C458.494 583.727 457.863 583.212 457.483 582.452C456.621 581.023 456.164 579.234 455.752 577.457L455.211 574.734L454.954 573.124L454.529 570.208C454.02 566.365 453.563 562.599 453.306 558.821C452.713 551.282 452.295 543.776 451.941 536.264C451.246 521.252 450.892 506.227 450.769 491.144C450.595 468.639 449.108 445.291 448.516 422.303C447.866 397.036 447.473 371.75 447.235 346.464C447.158 330.898 447.081 315.326 447.01 299.78C447.01 276.206 447.287 252.535 448.104 229.058C448.317 223.374 448.548 217.735 449.005 212.051L449.404 207.763L449.681 205.594C449.816 204.577 450.029 203.547 450.228 202.536C450.653 200.502 451.329 198.584 452.43 197.097C453.589 195.333 455.469 195.32 457.38 195.339C463.309 196.215 465.685 196.53 469.187 196.929C472.508 197.303 475.817 197.612 479.126 197.837C482.969 198.088 486.716 198.217 490.514 198.262C497.556 198.307 501.882 197.998 504.715 197.689C507.521 197.335 508.899 197.328 510.753 197.18C511.616 197.129 512.51 196.582 513.238 196.356C513.856 196.182 514.268 196.388 514.409 197.187C514.57 197.978 514.345 199.433 513.27 200.998C511.12 204.332 506.131 206.746 500.311 207.866C492.966 209.276 485.782 209.167 478.617 208.813C475.045 208.568 471.478 208.201 467.912 207.75C464.822 207.39 459.183 206.437 460.4 206.753C460.213 206.708 460.161 206.952 460.194 207.113C460.168 207.345 460.264 206.907 460.161 207.66L459.801 210.988C459.376 215.54 459.157 220.297 458.951 225.08C458.546 234.659 458.359 244.411 458.237 254.177C457.96 279.27 457.998 304.575 458.346 329.829L458.069 329.861Z" fill="#221F1F"/>
<path fill-rule="evenodd" clip-rule="evenodd" d="M515.879 366.657L515.325 414.236L515.493 431.578C515.267 451.972 515.042 472.378 514.81 492.753C514.739 501.804 514.958 510.893 515.254 519.86C515.48 525.615 515.699 531.396 515.917 537.164C515.963 542.842 515.724 548.925 515.299 554.23C515.229 554.944 515.036 555.491 514.784 555.91C514.662 556.116 514.521 556.29 514.366 556.418L514.121 556.579C514.379 556.509 513.091 556.933 512.976 556.972C512.673 557.081 512.667 557.081 512.969 556.978C514.315 556.528 513.484 556.785 513.581 556.721C513.478 556.727 513.381 556.715 513.278 556.695C513.072 556.65 512.847 556.554 512.615 556.406C512.145 556.109 511.624 555.601 511.07 554.816C508.933 551.61 506.358 546.202 505.663 539.514C504.555 515.94 504.189 492.405 505.206 468.625C505.785 454.411 505.038 439.638 504.993 425.108L505.058 377.163L505.135 347.66C505.103 332.764 505.276 317.803 504.967 303.017C504.742 291.526 503.873 280.26 503.339 268.885C503.21 266.381 503.023 263.916 502.978 261.379C502.779 252.026 503.738 248.846 506.86 247.011C507.568 246.586 508.289 246.02 508.997 245.795C511.424 245.08 513.227 248.884 513.793 255.592C515.628 275.78 516.027 297.184 516.169 318.653C516.162 334.605 516.156 350.64 516.149 366.637L515.879 366.657Z" fill="#221F1F"/>
<path fill-rule="evenodd" clip-rule="evenodd" d="M163.609 503.873L164.246 487.129L165.218 470.372C165.411 466.291 164.909 462.248 165.173 458.174C166.074 443.792 167.182 429.398 167.619 415.037C167.767 408.663 167.4 402.284 167.188 395.982C166.892 387.89 165.386 379.83 167.98 371.597C168.694 369.035 171.662 369.164 175.318 371.069C177.153 372.028 179.213 373.419 181.131 375.157C183.153 376.888 184.633 378.961 184.987 381.292C186.429 389.551 187.891 397.778 188.348 406.082C188.579 414.393 188.361 422.736 187.511 431.149C186.468 441.211 188.193 451.549 188.47 461.772C188.715 473.018 188.863 484.271 188.547 495.543L188.245 516.342C188.251 526.835 187.878 537.386 188.573 547.782C189.075 555.868 191.245 563.747 192.307 571.781C192.532 573.551 192.976 575.276 193.053 577.066C193.401 580.368 192.172 582.621 191 584.166C189.68 585.718 187.749 586.613 184.878 587.327C183.571 587.655 182.297 588.08 181.035 588.267C176.825 588.891 173.014 586.22 170.49 581.54C167.323 574.549 165.817 567.333 164.909 559.968C163.976 552.61 163.564 545.111 163.293 537.585C162.888 526.41 163.1 515.145 162.984 503.911L163.609 503.873Z" fill="#221F1F"/>
<path fill-rule="evenodd" clip-rule="evenodd" d="M307.82 471.164L308.393 449.141L309.275 427.113C309.455 421.75 309.018 416.414 309.249 411.058C310.067 392.17 311.071 373.27 311.457 354.396C311.605 346.021 311.258 337.62 311.078 329.322C310.794 318.675 309.481 308.001 311.638 297.335C312.23 294.007 314.85 294.245 318.114 296.871C319.755 298.184 321.603 300.109 323.315 302.478C325.105 304.828 326.437 307.615 326.759 310.699C328.072 321.61 329.366 332.476 329.772 343.401C329.958 354.331 329.772 365.294 329.006 376.315C328.079 389.499 329.579 403.146 329.817 416.588C330.016 431.374 330.126 446.174 329.843 460.973L329.559 488.294C329.559 502.076 329.231 515.942 329.875 529.609C330.319 540.237 332.257 550.627 333.242 561.146C333.435 563.463 333.834 565.729 333.911 568.072C334.226 572.405 333.19 575.302 332.141 577.342C330.976 579.37 329.276 580.542 326.746 581.475C325.594 581.906 324.467 582.467 323.354 582.711C319.646 583.535 316.273 580.02 314.032 573.808C308.522 555.211 308.232 535.435 307.537 515.582C307.176 500.834 307.357 485.996 307.267 471.196L307.82 471.164Z" fill="#221F1F"/>
<path fill-rule="evenodd" clip-rule="evenodd" d="M452.079 433.6L452.697 404.812L453.624 376.024C453.817 369.02 453.392 362.029 453.637 355.032C454.493 330.357 455.542 305.67 455.98 281.002C456.141 270.058 455.819 259.063 455.652 248.216C455.388 234.298 454.107 220.278 456.218 206.411C456.785 202.098 459.411 202.439 462.694 205.961C464.336 207.705 466.235 210.319 467.922 213.422C469.711 216.525 471.044 220.207 471.378 224.243C472.66 238.502 473.941 252.728 474.32 267.007C474.481 281.291 474.269 295.608 473.477 309.996C472.518 327.203 473.986 345.06 474.192 362.641C474.359 381.966 474.436 401.297 474.121 420.635L473.792 456.337C473.773 474.349 473.419 492.457 474.05 510.327C474.481 524.226 476.425 537.822 477.41 551.559C477.616 554.578 478.015 557.546 478.093 560.604C478.125 571.921 475.846 575.628 470.947 578.055C469.795 578.609 468.675 579.343 467.561 579.658C463.847 580.733 460.486 576.163 458.22 567.968C452.671 543.544 452.401 517.666 451.725 491.685C451.384 472.385 451.59 452.99 451.526 433.632L452.079 433.6Z" fill="#221F1F"/>
<path fill-rule="evenodd" clip-rule="evenodd" d="M676.889 581.679C677.179 581.57 677.539 581.39 677.945 581.119C678.144 580.984 678.363 580.83 678.582 580.643C678.91 580.405 678.91 580.308 678.717 580.27L677.642 579.703L676.876 579.33C677.095 579.355 674.861 578.647 673.715 578.268C669.821 577.038 665.842 576.047 661.993 574.663C648.455 569.693 635.336 563.867 622.248 557.983C616.384 555.447 610.513 552.911 604.7 550.394C597.233 547.04 589.611 543.77 583.405 536.862C581.493 534.583 583.791 533.425 587.004 532.852C590.094 532.324 594.336 531.835 598.321 533.547C612.509 539.579 627.282 546.428 642.095 553.335C650.953 557.584 660.841 560.217 670.304 563.307C672.209 563.957 674.134 564.562 676.071 565.135L678.968 566.017C679.528 566.178 679.747 566.288 680.597 566.494L683.075 567.092C686.474 567.839 689.41 568.805 693.04 569.352L703.315 571.083L702.98 572.86L701.023 575.525C699.716 577.347 698.448 578.866 697.173 580.527C695.609 582.407 694.019 584.274 692.313 586.095L686.7 591.413C683.449 594.2 681.138 596.028 678.292 598.307C670.033 604.815 661.465 610.796 653.405 617.201C647.09 622.119 641.438 627.61 635.554 632.863C634.261 634.022 633.089 635.264 631.744 636.378C626.755 640.498 624.572 641.026 621.122 638.946C620.343 638.477 619.48 638.071 618.804 637.517C616.5 635.651 617.079 632.116 620.285 628.415C629.883 617.574 641.348 607.783 653.347 599.028L666.576 589.25L673.001 584.325L676.091 581.815C676.625 581.377 676.38 581.647 676.554 581.512L676.889 581.679Z" fill="#221F1F"/>
<path fill-rule="evenodd" clip-rule="evenodd" d="M411.477 174.985C390.452 186.108 368.623 195.546 346.401 203.676C338.245 206.521 330.262 209.805 322.093 212.553C292.945 221.289 263.384 228.183 233.502 232.857L213.552 235.728C206.902 236.629 200.214 237.202 193.59 237.865C185.067 238.554 176.492 239.082 167.905 239.159C159.298 239.159 150.717 238.966 142.078 237.054C136.677 235.76 137.855 235.026 142.432 234.376C144.672 234.151 147.839 233.533 151.663 232.857C155.435 232.393 159.864 231.743 164.673 231.402C173.164 231.061 181.7 229.715 190.178 228.866L202.879 226.954C207.128 226.458 211.376 225.943 215.599 225.164C232.543 222.583 249.428 219.319 266.339 215.682C286.565 211.272 306.998 204.21 326.748 196.698C337.53 192.346 348.59 188.658 359.044 183.521C369.543 178.532 380.455 174.347 390.574 168.586L409.59 158.556C416.028 155.37 421.854 151.147 427.995 147.471C446.715 136.438 464.147 123.215 481.026 109.845C487.245 104.218 493.225 98.4504 499.122 92.6632L507.973 84.0306C510.941 81.1789 513.497 77.8893 516.303 74.8702C518.73 72.1536 520.983 69.3855 523.487 66.7205C532.783 56.8326 536.639 54.5538 542.021 55.4357C543.25 55.6417 544.621 55.6803 545.658 56.0794C549.16 57.4248 547.37 63.3923 541.042 71.5034C531.553 83.3933 521.891 95.9398 509.866 106.375C504.008 111.75 498.034 117.093 491.989 122.41C485.88 127.638 479.159 132.157 472.716 137.03L458.141 147.626C453.242 151.115 447.957 154.018 442.872 157.23C432.54 163.397 422.53 170.086 411.695 175.313L411.477 174.985Z" fill="#221F1F"/>
<path fill-rule="evenodd" clip-rule="evenodd" d="M567.924 30.22L568.078 29.3381L568.233 28.8617C568.349 28.4755 568.394 28.1472 568.478 27.6772C568.548 27.1558 567.988 27.5871 567.641 27.6C567.087 27.8124 567.016 27.7287 565.825 28.3339C562.703 30.0269 559.665 31.9839 556.388 33.5288C544.781 38.9234 532.409 42.7794 519.914 44.6913C514.378 45.5925 508.848 46.5002 503.363 47.1697C496.34 48.1932 489.194 48.676 482.133 47.6396C479.931 47.3178 480.24 45.29 482.043 43.1141C483.839 40.9512 487.07 38.5243 490.913 37.99C504.606 36.1102 517.77 33.7992 531.192 30.9925C539.284 29.3188 546.893 25.3083 554.392 21.4008L559.13 18.8516L566.147 14.8797C568.722 13.412 571.226 12.0537 573.666 10.7855C576.022 9.62034 578.784 7.9273 580.818 7.25781L579.981 18.7679L579.093 31.8229L578.385 40.7967C577.612 49.8863 576.022 59.0338 573.801 67.9754C572.037 74.902 570.19 81.8415 567.171 88.4721C566.553 89.9527 565.941 91.4075 565.117 92.8044C562.182 98.0509 560.109 98.9586 556.929 98.0702C556.189 97.8514 555.403 97.7033 554.734 97.3814C552.481 96.2742 552.172 93.2164 553.845 89.7274C558.442 79.0863 562.51 68.3294 564.647 56.3687C565.439 51.9398 566.154 47.4465 566.611 42.8245C566.9 40.5392 567.055 38.1831 567.274 35.8592L567.641 30.2715L567.924 30.22Z" fill="#221F1F"/>
</g>
<defs>
<clipPath id="clip0_2324_48">
<rect width="720" height="720" fill="white"/>
</clipPath>
</defs>
</svg>
