<svg width="590" height="401" viewBox="0 0 590 401" fill="none" xmlns="http://www.w3.org/2000/svg">
<path d="M238.379 355.928C249.382 322.136 267.469 264.86 272.617 240.728C272.639 240.627 272.699 240.545 272.787 240.491C295.221 226.537 319.486 218.947 327.648 217.432C327.748 217.413 327.844 217.438 327.927 217.496C348.714 232.028 361.574 240.91 369.523 248.471C389.739 267.7 393.587 304.572 393.234 328.572C393.234 328.708 393.158 328.83 393.04 328.895L384.706 333.5C384.501 333.613 384.246 333.516 384.163 333.298C377.36 315.013 364.673 300.582 356.371 274.358C356.378 274.57 356.196 274.757 355.971 274.751C333.415 274.175 332.51 272.876 312.156 266.656C300.01 305.398 265.324 343.627 248.118 360.069C248.009 360.173 247.855 360.197 247.717 360.14L238.598 356.39C238.414 356.315 238.317 356.117 238.379 355.928Z" fill="black"/>
<path d="M299.707 132.086C301.606 129.237 322.259 121.643 314.603 94.7922C321.272 91.819 322.38 84.7261 316.249 84.7288C309.574 84.4283 307.629 79.1337 307.223 75.6743C306.961 71.0122 305.149 66.8249 304.415 66.1123" stroke="black" stroke-width="2" stroke-linecap="round"/>
<path d="M304.867 88.1202C305.748 87.7278 305.984 86.3395 305.395 85.0193C304.807 83.6991 303.616 82.947 302.736 83.3393C301.856 83.7317 301.619 85.12 302.208 86.4403C302.797 87.7605 303.987 88.5126 304.867 88.1202Z" fill="black"/>
<path d="M297.086 81.86C297.649 80.1677 299.715 77.1208 303.477 78.4701" stroke="black" stroke-width="2" stroke-linecap="round"/>
<path d="M300.163 108.354C303.637 110.549 306.279 110.41 309.688 106.396" stroke="black" stroke-width="2" stroke-linecap="round"/>
<path d="M273.421 94.0732C273.426 95.3249 274.112 97.8559 276.816 97.9665" stroke="black" stroke-width="2" stroke-linecap="round"/>
<path d="M245.186 94.1848C249.099 109.492 262.063 116.407 271.676 121.886C276.374 115.632 282.928 102.886 278.599 103.827C274.049 104.816 264.509 95.5519 266.935 90.26C269.782 84.0511 276.839 88.2186 279.781 92.4864L280.557 84.1871C277.376 80.0948 273.256 72.2449 282.224 73.5831C291.192 74.9214 300.761 69.0889 304.425 66.0056C309.973 56.2817 316.472 36.5634 298.083 35.4806C282.79 34.5799 270.616 50.2107 264.283 62.1378C256.875 63.4323 239.849 73.3138 245.186 94.1848Z" fill="black"/>
<path d="M271.7 120.729C276.338 122.951 279.194 125.253 281.853 131.521" stroke="black" stroke-width="2" stroke-linecap="round"/>
<path d="M276.258 176.567C277.696 186.692 278.59 213.626 270.864 241.213C270.767 241.562 271.162 241.849 271.458 241.641C279.726 235.851 301.325 223.716 329.116 216.536C329.3 216.488 329.423 216.32 329.401 216.13C327.594 200.843 326.621 168.706 335.445 160.301C335.493 160.255 335.549 160.225 335.614 160.21C353.81 156.01 392.421 142.627 403.68 121.723C403.695 121.692 403.707 121.66 403.714 121.625C404.524 117.846 405.078 110.128 400.979 108.799C400.9 108.773 400.812 108.778 400.733 108.81C373.857 119.677 343.904 128.679 305.405 135.506" stroke="black" stroke-width="2" stroke-linecap="round"/>
<path d="M276.258 189.482C257.873 209.539 240.764 217.178 227.723 222.876C218.611 227.521 198.853 230.853 207.693 216.453C245.679 169.045 254.036 160.802 262.963 152.635C268.09 147.945 270.37 145.038 283.286 141.619" stroke="black" stroke-width="2" stroke-linecap="round"/>
<path d="M223.077 370.299C222.317 365.36 237.069 358.143 239.602 356.813L247.389 359.852C246.781 363.651 244.856 365.867 243.97 366.5L223.077 370.299Z" stroke="black" stroke-width="2"/>
<path d="M388.318 339.91C385.279 339.302 385.154 334.972 385.469 332.883L392.307 329.464C394.396 330.034 399.98 331.515 405.602 332.883C411.224 334.25 410.476 336.112 409.401 336.871L388.318 339.91Z" stroke="black" stroke-width="2"/>
<path d="M348.86 376.758C348.86 389.871 338.231 400.5 325.119 400.5C312.006 400.5 301.377 389.871 301.377 376.758C301.377 363.646 312.006 353.017 325.119 353.017C338.231 353.017 348.86 363.646 348.86 376.758Z" fill="black"/>
<path d="M186.23 379.606L463.532 328.704" stroke="black" stroke-width="2" stroke-linecap="round"/>
<path d="M429.724 60.3281H413.769C412.196 60.3281 410.92 61.6037 410.92 63.1771V74.953C410.92 76.5264 412.196 77.802 413.769 77.802H429.724C431.297 77.802 432.573 76.5264 432.573 74.953V63.1771C432.573 61.6037 431.297 60.3281 429.724 60.3281Z" stroke="black" stroke-width="2"/>
<path d="M456.694 55.7715H446.058C444.485 55.7715 443.209 57.047 443.209 58.6205V73.8151C443.209 75.3886 444.485 76.6641 446.058 76.6641H456.694C458.268 76.6641 459.543 75.3886 459.543 73.8151V58.6205C459.543 57.047 458.268 55.7715 456.694 55.7715Z" stroke="black" stroke-width="2"/>
<path d="M483.665 46.2754H473.408C471.835 46.2754 470.559 47.5509 470.559 49.1244V73.8157C470.559 75.3891 471.835 76.6647 473.408 76.6647H483.665C485.238 76.6647 486.514 75.3891 486.514 73.8157V49.1244C486.514 47.5509 485.238 46.2754 483.665 46.2754Z" stroke="black" stroke-width="2"/>
<path d="M511.395 36.5889H500.759C498.661 36.5889 496.96 38.2896 496.96 40.3875V73.8157C496.96 75.9137 498.661 77.6144 500.759 77.6144H511.395C513.493 77.6144 515.194 75.9137 515.194 73.8157V40.3875C515.194 38.2896 513.493 36.5889 511.395 36.5889Z" fill="black"/>
<path d="M539.505 54.251H529.249C527.675 54.251 526.4 55.5265 526.4 57.1V73.8141C526.4 75.3875 527.675 76.6631 529.249 76.6631H539.505C541.078 76.6631 542.354 75.3875 542.354 73.8141V57.1C542.354 55.5265 541.078 54.251 539.505 54.251Z" stroke="black" stroke-width="2"/>
<path d="M567.995 63.7471H557.359C555.785 63.7471 554.51 65.0226 554.51 66.5961V73.8135C554.51 75.387 555.785 76.6625 557.359 76.6625H567.995C569.568 76.6625 570.844 75.387 570.844 73.8135V66.5961C570.844 65.0226 569.568 63.7471 567.995 63.7471Z" stroke="black" stroke-width="2"/>
<path d="M506.271 31.3686C505.967 31.7181 505.427 31.7181 505.123 31.3686L501.849 27.5903C501.423 27.0983 501.773 26.333 502.422 26.333H508.971C509.621 26.333 509.97 27.0983 509.545 27.5903L506.271 31.3686Z" fill="black"/>
<path d="M524.69 0.5C526.788 0.5 528.489 2.20089 528.489 4.29883V24.8115C528.489 26.9094 526.788 28.6104 524.69 28.6104H487.843C485.745 28.6104 484.044 26.9094 484.044 24.8115V4.29883C484.044 2.20089 485.745 0.5 487.843 0.5H524.69ZM490.502 20.6338C489.663 20.6338 488.983 21.3141 488.983 22.1533C488.983 22.9924 489.663 23.6729 490.502 23.6729C491.342 23.6728 492.022 22.9924 492.022 22.1533C492.022 21.3142 491.342 20.6339 490.502 20.6338ZM497.719 20.6338C496.88 20.634 496.201 21.3143 496.201 22.1533C496.201 22.9923 496.88 23.6726 497.719 23.6729H507.596C508.435 23.6729 509.116 22.9924 509.116 22.1533C509.116 21.3141 508.435 20.6338 507.596 20.6338H497.719ZM490.502 12.7969C489.321 12.7969 488.363 13.7549 488.363 14.9365C488.363 16.1181 489.321 17.0762 490.502 17.0762C491.684 17.0761 492.642 16.1181 492.642 14.9365C492.642 13.7549 491.684 12.797 490.502 12.7969ZM497.719 13.415C496.88 13.4153 496.201 14.0956 496.201 14.9346C496.201 15.7734 496.88 16.4529 497.719 16.4531H522.031C522.87 16.4531 523.55 15.7735 523.55 14.9346C523.55 14.0954 522.87 13.415 522.031 13.415H497.719ZM490.502 14.7969C490.579 14.797 490.642 14.8595 490.642 14.9365C490.642 15.0135 490.579 15.0761 490.502 15.0762C490.425 15.0762 490.363 15.0135 490.363 14.9365C490.363 14.8594 490.425 14.7969 490.502 14.7969ZM490.502 5.81641C489.663 5.81641 488.983 6.49677 488.983 7.33594C488.983 8.17511 489.663 8.85547 490.502 8.85547H500.378C501.218 8.85547 501.898 8.17511 501.898 7.33594C501.898 6.49677 501.218 5.81641 500.378 5.81641H490.502Z" fill="black"/>
<path d="M76.0538 294.883C82.0237 291.813 88.8336 290.78 95.4455 291.941C102.057 293.102 108.108 296.393 112.675 301.313C117.242 306.233 120.075 312.512 120.741 319.191C121.407 325.871 119.871 332.586 116.367 338.311C112.862 344.036 107.581 348.459 101.329 350.903C95.0771 353.348 88.1973 353.681 81.7385 351.851C75.2796 350.022 69.5964 346.13 65.555 340.77C61.514 335.41 59.3366 328.875 59.3548 322.162L90.124 322.247L76.0538 294.883Z" stroke="black" stroke-width="2"/>
<path d="M53.6565 318.827C53.6565 313.27 55.1991 307.823 58.1127 303.091C61.0263 298.36 65.1964 294.53 70.1582 292.029L83.6659 318.827H53.6565Z" fill="black"/>
<path d="M435.353 108.423C435.786 109.431 435.946 111.66 433.458 113.012C433.275 113.112 433.074 113.207 432.861 113.297C429.75 114.596 428.975 112.46 428.975 111.229V109.975" stroke="black" stroke-width="2" stroke-linecap="round"/>
<path d="M434.951 105.32C435.787 105.824 436.93 107.104 435.354 108.422C435.236 108.52 435.103 108.619 434.951 108.717C433.131 109.916 430.544 110.073 428.976 109.974C428.687 109.956 428.436 109.929 428.227 109.899C427.38 109.662 426.016 108.743 427.331 106.959" stroke="black" stroke-width="2" stroke-linecap="round"/>
<path d="M434.355 101.628C435.202 101.825 436.657 102.603 435.699 104.139C434.742 105.675 429.921 106.649 427.631 106.945C427.532 106.955 427.433 106.96 427.331 106.959C426.427 106.956 425.538 106.518 425.538 105.32C425.538 103.629 427.73 103.055 428.227 102.957" stroke="black" stroke-width="2" stroke-linecap="round"/>
<path d="M429.344 96.6034C430.191 96.9479 430.708 98.1981 428.676 99.2613C426.643 100.325 427.133 101.772 427.631 102.363C428.429 103.052 431.008 103.574 434.951 100.148C438.898 96.7212 432.71 94.5844 428.976 93.9443" stroke="black" stroke-width="2" stroke-linecap="round"/>
<path d="M420.607 100.15C422.301 98.8209 425.598 96.96 425.241 100.15C424.88 103.34 422.601 104.729 421.503 105.024" stroke="black" stroke-width="2" stroke-linecap="round"/>
<path d="M420.607 112.943C421.598 112.09 423.289 109.3 422.096 104.966" stroke="black" stroke-width="2" stroke-linecap="round"/>
<path d="M421.332 99.115L419.467 89.0098" stroke="black" stroke-width="2" stroke-linecap="round"/>
<path d="M428.014 87.2998L429.287 97.6295" stroke="black" stroke-width="2" stroke-linecap="round"/>
<path d="M430.939 113.665C430.939 116.486 432.292 120.197 429.287 121.088C425.621 122.176 425.234 118.861 424.485 115.446L422.533 105.202" stroke="black" stroke-width="2" stroke-linecap="round"/>
<path d="M420.227 95.2783C418.138 95.6582 413.237 97.7854 410.35 103.256C407.463 108.726 404.717 110.473 403.703 110.663" stroke="black" stroke-width="2" stroke-linecap="round"/>
<path d="M404.273 120.159C409.591 120.728 420.569 120.5 424.216 116.55" stroke="black" stroke-width="2" stroke-linecap="round"/>
<path d="M420.417 88.8197C430.487 88.8197 438.651 80.6562 438.651 70.5861C438.651 60.516 430.487 52.3525 420.417 52.3525C410.347 52.3525 402.184 60.516 402.184 70.5861C402.184 80.6562 410.347 88.8197 420.417 88.8197Z" stroke="black" stroke-width="2"/>
<path d="M588.485 105.932C581.199 107.427 584.614 117.459 579.277 120.128C572.903 123.315 570.707 105.374 571.536 97.7589C571.775 94.4199 575.661 92.935 576.185 97.7589C576.743 102.883 570.385 122.754 563.099 115.086L558.236 109.457C556.884 107.791 554.221 105.477 551.969 109.457C549.716 113.437 546.126 112.122 544.614 110.966L539.862 107.509" stroke="black" stroke-width="2" stroke-linecap="round"/>
<path d="M543.269 92.182L505.442 85.7744C505.07 85.711 504.842 86.1767 505.127 86.4312L522.647 102.21C522.677 102.236 522.704 102.256 522.741 102.27C524.291 102.88 530.24 100.536 533.408 99.1184C533.621 99.0226 533.868 99.1396 533.932 99.3645C534.662 101.919 535.543 104.281 535.995 105.407C536.063 105.573 536.246 105.665 536.367 105.533C537.214 104.598 537.332 99.8416 537.271 97.1115C537.268 96.9167 537.408 96.7514 537.602 96.7138C539.93 96.2591 543.08 94.2135 544.42 93.2016" stroke="black" stroke-width="2" stroke-linecap="round"/>
<path d="M533.784 98.8482C529.75 96.991 519.543 92.3399 510.992 88.5918" stroke="black" stroke-width="2" stroke-linecap="round"/>
<path d="M536.064 105.687L528.466 101.129" stroke="black" stroke-width="2" stroke-linecap="round"/>
<path d="M534.544 95.0497L524.288 92.0107" stroke="black" stroke-width="2" stroke-linecap="round"/>
<path d="M278.055 143.293C275.332 140.128 271.521 133.454 278.055 132.087C286.222 130.378 304.645 130.757 305.405 135.316" stroke="black" stroke-width="2" stroke-linecap="round"/>
<path d="M190.568 243.219C192.045 244.018 196.499 244.322 202.496 239.149C208.494 233.977 209.805 229.365 209.711 227.706" stroke="black" stroke-width="2" stroke-linecap="round"/>
<path d="M183.146 243.094C182.978 244.521 183.926 246.71 189.061 244.045L190.567 243.219L193.187 241.783" stroke="black" stroke-width="2" stroke-linecap="round"/>
<path d="M181.81 238.67C180.603 239.378 178.659 241.208 180.537 242.86C181.103 243.358 182.039 243.372 183.146 243.092C185.708 242.445 189.182 240.225 191.093 238.799" stroke="black" stroke-width="2" stroke-linecap="round"/>
<path d="M204.194 220.702C201.363 219.662 195.514 217.633 191.627 218.983C190.651 219.349 188.44 219.854 187.399 218.942C186.099 217.803 183.634 220.726 186.986 222.681C190.338 224.637 192.521 222.563 192.077 225.668C191.722 228.152 184.844 232.182 181.45 233.886C180.23 234.439 178.216 236.04 179.914 238.028C180.334 238.52 181.003 238.701 181.81 238.668C184.264 238.567 188.005 236.487 190.003 235.139" stroke="black" stroke-width="2" stroke-linecap="round"/>
<path d="M104.689 84.0134C114.701 94.2603 133.301 98.7758 143.105 100.008C143.797 100.096 144.041 100.997 143.479 101.412L117.684 120.438C117.6 120.5 117.503 120.544 117.401 120.567C98.3024 124.83 80.4962 105.817 73.4307 95.0159C73.1613 94.6045 73.3619 94.0582 73.8284 93.9017L103.894 83.819C104.174 83.7247 104.482 83.8019 104.689 84.0134Z" stroke="black" stroke-width="2" stroke-linecap="round"/>
<path d="M89.9189 99.619C92.9579 98.9877 99.5675 97.0223 101.695 94.209" stroke="black" stroke-width="2" stroke-linecap="round"/>
<path d="M98.4661 106.454C100.365 106.517 104.734 105.581 107.013 101.326" stroke="black" stroke-width="2" stroke-linecap="round"/>
<path d="M107.773 111.014C110.622 110.634 116.738 108.469 118.409 102.847" stroke="black" stroke-width="2" stroke-linecap="round"/>
<path d="M40.616 163.406C30.6045 173.653 12.0047 178.168 2.20074 179.401C1.50787 179.488 1.26401 180.389 1.82621 180.804L27.6214 199.831C27.7053 199.893 27.8022 199.937 27.904 199.96C47.0031 204.222 64.8093 185.21 71.8748 174.408C72.1441 173.997 71.9436 173.451 71.4771 173.294L41.4115 163.212C41.1311 163.117 40.823 163.194 40.616 163.406Z" stroke="black" stroke-width="2" stroke-linecap="round"/>
<path d="M55.3862 179.011C52.3473 178.379 45.7376 176.414 43.6104 173.601" stroke="black" stroke-width="2" stroke-linecap="round"/>
<path d="M46.8395 185.847C44.9401 185.91 40.5717 184.973 38.2925 180.719" stroke="black" stroke-width="2" stroke-linecap="round"/>
<path d="M37.5322 190.406C34.6832 190.027 28.5674 187.861 26.896 182.239" stroke="black" stroke-width="2" stroke-linecap="round"/>
</svg>
